<?xml version="1.0" encoding="UTF-8" standalone="no"?>
<svg
   xmlns:dc="http://purl.org/dc/elements/1.1/"
   xmlns:cc="http://creativecommons.org/ns#"
   xmlns:rdf="http://www.w3.org/1999/02/22-rdf-syntax-ns#"
   xmlns:svg="http://www.w3.org/2000/svg"
   xmlns="http://www.w3.org/2000/svg"
   xmlns:sodipodi="http://sodipodi.sourceforge.net/DTD/sodipodi-0.dtd"
   xmlns:inkscape="http://www.inkscape.org/namespaces/inkscape"
   viewBox="0 0 17 17"
   version="1.1"
   class="si-glyph si-glyph-camera"
   id="svg14"
   sodipodi:docname="si-glyph-camera1.svg"
   inkscape:version="0.92.1 r15371">
  <metadata
     id="metadata18">
    <rdf:RDF>
      <cc:Work
         rdf:about="">
        <dc:format>image/svg+xml</dc:format>
        <dc:type
           rdf:resource="http://purl.org/dc/dcmitype/StillImage" />
        <dc:title>871</dc:title>
      </cc:Work>
    </rdf:RDF>
  </metadata>
  <sodipodi:namedview
     pagecolor="#ffffff"
     bordercolor="#666666"
     borderopacity="1"
     objecttolerance="10"
     gridtolerance="10"
     guidetolerance="10"
     inkscape:pageopacity="0"
     inkscape:pageshadow="2"
     inkscape:window-width="742"
     inkscape:window-height="480"
     id="namedview16"
     showgrid="false"
     inkscape:zoom="13.882353"
     inkscape:cx="8.5"
     inkscape:cy="8.5"
     inkscape:window-x="0"
     inkscape:window-y="0"
     inkscape:window-maximized="0"
     inkscape:current-layer="svg14" />
  <title
     id="title2">871</title>
  <defs
     id="defs4" />
  <g
     stroke="none"
     stroke-width="1"
     fill="none"
     fill-rule="evenodd"
     id="g12"
     style="fill:#ffffff">
    <g
       transform="translate(0.995000, 2.980000)"
       fill="#434343"
       id="g10"
       style="fill:#ffffff">
      <circle
         cx="7.958"
         cy="6.958"
         r="2.958"
         class="si-glyph-fill"
         id="circle6"
         style="fill:#ffffff" />
      <path
         d="M14.666,2.042 L10.953,2.042 L9.937,0.031 L6,0.031 L5,2.042 L1.333,2.042 C0.597,2.042 0,2.639 0,3.375 L0,10.625 C0,11.361 0.597,11.959 1.333,11.959 L14.666,11.959 C15.402,11.959 16,11.361 16,10.625 L16,3.375 C16,2.639 15.402,2.042 14.666,2.042 L14.666,2.042 Z M6.953,0.969 L9.047,0.969 L9.047,2.031 L6.953,2.031 L6.953,0.969 L6.953,0.969 Z M8.002,11.033 C5.764,11.033 3.947,9.221 3.947,6.985 C3.947,4.749 5.763,2.937 8.002,2.937 C10.242,2.937 12.057,4.749 12.057,6.985 C12.057,9.221 10.242,11.033 8.002,11.033 L8.002,11.033 Z M14,4.031 L11.953,4.031 L11.953,2.969 L14,2.969 L14,4.031 L14,4.031 Z"
         class="si-glyph-fill"
         id="path8"
         style="fill:#ffffff" />
    </g>
  </g>
</svg>
