<?xml version="1.0" encoding="UTF-8" standalone="no"?>
<!--?xml version="1.0" encoding="UTF-8" standalone="no"?-->

<svg
   xmlns:dc="http://purl.org/dc/elements/1.1/"
   xmlns:cc="http://creativecommons.org/ns#"
   xmlns:rdf="http://www.w3.org/1999/02/22-rdf-syntax-ns#"
   xmlns:svg="http://www.w3.org/2000/svg"
   xmlns="http://www.w3.org/2000/svg"
   xmlns:sodipodi="http://sodipodi.sourceforge.net/DTD/sodipodi-0.dtd"
   xmlns:inkscape="http://www.inkscape.org/namespaces/inkscape"
   viewBox="0 0 17 16"
   version="1.1"
   class="si-glyph si-glyph-mail"
   id="svg10"
   sodipodi:docname="si-glyph-mail.svg"
   inkscape:version="0.92.1 r15371">
  <metadata
     id="metadata14">
    <rdf:RDF>
      <cc:Work
         rdf:about="">
        <dc:format>image/svg+xml</dc:format>
        <dc:type
           rdf:resource="http://purl.org/dc/dcmitype/StillImage" />
        <dc:title>1001</dc:title>
      </cc:Work>
    </rdf:RDF>
  </metadata>
  <sodipodi:namedview
     pagecolor="#ffffff"
     bordercolor="#666666"
     borderopacity="1"
     objecttolerance="10"
     gridtolerance="10"
     guidetolerance="10"
     inkscape:pageopacity="0"
     inkscape:pageshadow="2"
     inkscape:window-width="742"
     inkscape:window-height="480"
     id="namedview12"
     showgrid="false"
     inkscape:zoom="14.75"
     inkscape:cx="8.5"
     inkscape:cy="8.6643993"
     inkscape:window-x="486"
     inkscape:window-y="121"
     inkscape:window-maximized="0"
     inkscape:current-layer="svg10" />
  <!-- Generator: Sketch 3.0.3 (7891) - http://www.bohemiancoding.com/sketch -->
  <title
     id="title2">1001</title>
  <defs
     id="defs4" />
  <g
     stroke="none"
     stroke-width="1"
     fill="none"
     fill-rule="evenodd"
     id="g8"
     style="fill:#000000">
    <path
       d="M16.304,3.059 L1.701,3.059 C1.344,3.059 1.053,3.35 1.053,3.707 L1.053,12.324 C1.053,12.681 1.344,12.972 1.701,12.972 L16.304,12.972 C16.662,12.972 16.953,12.681 16.953,12.324 L16.953,3.707 C16.953,3.35 16.662,3.059 16.304,3.059 L16.304,3.059 Z M14.906,12.046 L12.022,8.643 L9.013,11.188 L5.955,8.57 L3.093,12.047 L1.847,12.047 L5.036,7.694 L1.966,5.094 L1.937,3.813 L9.013,9.344 L16.062,3.724 L16.062,5.094 L13.045,7.694 L16.169,12.032 L14.906,12.046 L14.906,12.046 Z"
       fill="#434343"
       class="si-glyph-fill"
       id="path6"
       style="fill:#000000" />
  </g>
</svg>
