<?xml version="1.0" encoding="UTF-8" standalone="no"?>
<svg
   xmlns:dc="http://purl.org/dc/elements/1.1/"
   xmlns:cc="http://creativecommons.org/ns#"
   xmlns:rdf="http://www.w3.org/1999/02/22-rdf-syntax-ns#"
   xmlns:svg="http://www.w3.org/2000/svg"
   xmlns="http://www.w3.org/2000/svg"
   xmlns:sodipodi="http://sodipodi.sourceforge.net/DTD/sodipodi-0.dtd"
   xmlns:inkscape="http://www.inkscape.org/namespaces/inkscape"
   viewBox="0 0 17 16"
   version="1.1"
   class="si-glyph si-glyph-clapboard"
   id="svg14"
   sodipodi:docname="si-glyph-clapboard1.svg"
   inkscape:version="0.92.1 r15371">
  <metadata
     id="metadata18">
    <rdf:RDF>
      <cc:Work
         rdf:about="">
        <dc:format>image/svg+xml</dc:format>
        <dc:type
           rdf:resource="http://purl.org/dc/dcmitype/StillImage" />
        <dc:title>818</dc:title>
      </cc:Work>
    </rdf:RDF>
  </metadata>
  <sodipodi:namedview
     pagecolor="#ffffff"
     bordercolor="#666666"
     borderopacity="1"
     objecttolerance="10"
     gridtolerance="10"
     guidetolerance="10"
     inkscape:pageopacity="0"
     inkscape:pageshadow="2"
     inkscape:window-width="742"
     inkscape:window-height="480"
     id="namedview16"
     showgrid="false"
     inkscape:zoom="14.75"
     inkscape:cx="8.5"
     inkscape:cy="8"
     inkscape:window-x="446"
     inkscape:window-y="153"
     inkscape:window-maximized="0"
     inkscape:current-layer="svg14" />
  <title
     id="title2">818</title>
  <defs
     id="defs4" />
  <g
     stroke="none"
     stroke-width="1"
     fill="none"
     fill-rule="evenodd"
     id="g12"
     style="fill:#ffffff">
    <g
       transform="translate(1.000000, 0.000000)"
       fill="#434343"
       id="g10"
       style="fill:#ffffff">
      <path
         d="M1.042,7.954 L15.958,4.431 L14.978,0.375 L0.063,3.898 L1.042,7.954 L1.042,7.954 Z M12.55,4.357 L11.102,2.045 L13.112,1.559 L14.561,3.871 L12.55,4.357 L12.55,4.357 Z M9.199,5.167 L7.75,2.855 L9.759,2.37 L11.209,4.682 L9.199,5.167 L9.199,5.167 Z M5.848,5.977 L4.4,3.665 L6.41,3.18 L7.859,5.492 L5.848,5.977 L5.848,5.977 Z M2.498,6.787 L1.049,4.475 L3.058,3.99 L4.507,6.302 L2.498,6.787 L2.498,6.787 Z"
         class="si-glyph-fill"
         id="path6"
         style="fill:#ffffff" />
      <path
         d="M1.021,8.037 L16,8.037 L16,15.987 L1.021,15.987 L1.021,8.037 L1.021,8.037 Z"
         class="si-glyph-fill"
         id="path8"
         style="fill:#ffffff" />
    </g>
  </g>
</svg>
